<?xml version="1.0" encoding="UTF-8"?>
<!DOCTYPE svg PUBLIC "-//W3C//DTD SVG 1.1//EN" "http://www.w3.org/Graphics/SVG/1.1/DTD/svg11.dtd">
<!-- Creator: CorelDRAW 2019 (64-Bit) -->
<svg xmlns="http://www.w3.org/2000/svg" xml:space="preserve" width="360.151mm" height="352.416mm" version="1.1" style="shape-rendering:geometricPrecision; text-rendering:geometricPrecision; image-rendering:optimizeQuality; fill-rule:evenodd; clip-rule:evenodd"
viewBox="0 0 7195.8 7041.24"
 xmlns:xlink="http://www.w3.org/1999/xlink"
 xmlns:xodm="http://www.corel.com/coreldraw/odm/2003">
 <defs>
  <style type="text/css">
   <![CDATA[
    .fil0 {fill:#FFB121}
   ]]>
  </style>
 </defs>
 <g id="Capa_x0020_1">
  <metadata id="CorelCorpID_0Corel-Layer"/>
  <g id="_1999430170240">
   <path class="fil0" d="M1807.98 4834.12c10.04,468.47 0.31,1005.6 0.22,1486.66 -0.04,206.22 28.12,344.86 183.81,441.98 89,55.52 187.09,69.92 290.21,90.57 496.53,99.45 801.98,153.93 1334.87,175.37 325.13,13.08 659.76,-0.5 987.67,4.15 333.67,4.73 670.78,1 1005.16,1 355.84,0 619.79,60.31 836.13,-163.67 131.93,-136.6 176.87,-369.84 80.59,-562.38 -35.33,-70.65 -69.76,-95.87 -102.33,-144.33 246.27,-21.21 435.58,-115.7 518.56,-360.25 69.37,-204.44 5.65,-425.9 -149.9,-564.17 -19.85,-17.65 -43.59,-32.81 -58.8,-50.13 61.11,-33.97 249.35,-45.17 380.16,-269.4 38.93,-66.74 71.94,-156.47 79.84,-246.14 6.58,-74.77 -6.26,-223.32 -47.36,-271.2 -9.87,-32.46 -67.83,-140.45 -98.96,-165.33 -31.26,-22.23 -56.21,-54.18 -94.05,-79.24 -41.55,-27.52 -81.17,-42.12 -117.5,-66.76 44.99,-43.29 200.42,-88.67 277.11,-312.63 111.01,-324.18 -108.9,-664.56 -436.37,-704.28 -121.24,-14.7 -985.95,-4.45 -1185.38,-4.45 -207.61,0 -360.16,15.73 -519.05,-81.06 -201.58,-122.79 -344.65,-268.6 -356.57,-528.48 -2.16,-47.13 0.98,-92.99 9.51,-138.65 7.95,-42.51 28,-80.52 25.87,-119.75l31.72 -51.72c22.45,-54.36 60.58,-128.38 73.13,-178.97 20.29,-22.58 161.96,-369.51 187.85,-429.48 64.11,-148.48 114.26,-307.16 139.59,-485.13 27.59,-193.81 17.85,-405.88 18.17,-605.95 0.86,-531.26 -509.7,-530.72 -676.43,-314.48 -87.43,113.39 -123.5,313.13 -167.79,456.87 -158.07,512.93 -102.5,352.41 -406.59,852.3 -169.07,277.93 -542.17,920.94 -720.43,1154.68 -94.06,123.34 -200.26,245.64 -295.23,338.39 -172.03,168.02 -335,283.34 -506.69,430.92 -137.86,118.5 -419.31,306.48 -484.75,452.72 -62.64,139.98 -29.29,421.45 -36.64,594.95l0.64 417.45z"/>
   <path class="fil0" d="M338.17 3605.81c-159.47,30.75 -273.24,139.23 -317.33,284.87 -32.77,108.21 -17.1,450.56 -17.1,588.72l-0.02 1824.49c-0.29,198.12 -16.11,385.23 98.77,507.14 127.76,135.57 238.11,140.61 464.73,140.61 354.36,0 803.75,92.51 920.21,-285.23 34.71,-112.58 19.15,-447.79 19.16,-590.58l-0.01 -1824.49c0,-245.35 18.92,-452.72 -180.14,-582 -135.2,-87.81 -221.82,-71.54 -387.58,-71.54 -150.43,0 -472.73,-16.66 -600.71,8.02z"/>
  </g>
 </g>
</svg>
