<?xml version="1.0" encoding="UTF-8"?>
<!DOCTYPE svg PUBLIC "-//W3C//DTD SVG 1.1//EN" "http://www.w3.org/Graphics/SVG/1.1/DTD/svg11.dtd">
<!-- Creator: CorelDRAW 2019 (64-Bit) -->
<svg xmlns="http://www.w3.org/2000/svg" xml:space="preserve" width="178.542mm" height="292.468mm" version="1.1" style="shape-rendering:geometricPrecision; text-rendering:geometricPrecision; image-rendering:optimizeQuality; fill-rule:evenodd; clip-rule:evenodd"
viewBox="0 0 254.06 416.18"
 xmlns:xlink="http://www.w3.org/1999/xlink"
 xmlns:xodm="http://www.corel.com/coreldraw/odm/2003">
 <defs>
  <style type="text/css">
   <![CDATA[
    .fil0 {fill:black}
   ]]>
  </style>
 </defs>
 <g id="Capa_x0020_1">
  <metadata id="CorelCorpID_0Corel-Layer"/>
  <path class="fil0" d="M53.26 56.51c-19.76,1.28 -21.6,-4.46 -21.57,10.07 0.03,17.21 -2.63,15.25 17.71,15.25 7.26,0 14.54,0.04 21.8,-0.02 -0.27,13.4 -11.21,41.12 -19.82,52.33 -1.69,2.2 -3.07,4.33 -4.47,6.19 -3.36,4.43 -5.65,6.35 -7.04,8.09 -1.27,1.6 -1.05,1.62 -2.61,2.99l-16.79 14.07c-3.59,2.66 -16.55,9.69 -20.48,10.81l27.19 40.27c2.94,4.6 5.81,9.28 8.61,13.82 11.31,18.3 22.44,37.86 32.41,57.79 21.27,42.51 31.18,67.82 46.52,110.95 1.82,5.11 3.52,12.15 5.65,17.08l0.23 -197.72c-27.83,-8.37 -21.16,-45.97 4.99,-47.06 23.54,-0.98 33.53,29.53 15.12,43.11 -2.19,1.62 -5.52,2.66 -7.23,3.93 -0.54,8.02 -0.11,39.46 -0.11,48.19 0,12.64 -0.59,143.51 0.21,149.54 2.13,-4.97 3.69,-11.42 5.53,-16.64 2.02,-5.74 3.85,-10.95 5.83,-16.6 10.8,-30.94 26.19,-65.9 40.69,-94.34 10.38,-20.36 21.25,-39.23 32.27,-57.97 6.73,-11.45 22.63,-35.25 31.27,-47.18 1.82,-2.52 3.71,-4.52 4.87,-7.17 -6.98,-1.85 -21.47,-11.37 -26.26,-15.2 -7.57,-6.05 -14.62,-12.82 -20.69,-20.78 -10.49,-13.76 -24.01,-41.15 -24.27,-58.47l31.87 0c4.17,0.02 6.91,0.17 7.55,-3.67 0.58,-3.54 0.79,-18.41 -1.04,-20.33 -2.38,-2.51 -16.04,-1.11 -20.49,-1.31l0.02 -56.5 -16.99 0.01c-1.43,3.51 -0.58,52.91 -0.6,56.37l-37.43 0.21c0.06,-12.47 0.55,-46.96 -0.11,-56.58l-92.25 -0.03 -0.12 56.51zm62.83 8.06l-76.05 -0.01 -0.23 9.23 174.32 -0 -0.03 -9.25 -98.02 0.03z"/>
 </g>
</svg>
