<?xml version="1.0" encoding="UTF-8"?>
<!DOCTYPE svg PUBLIC "-//W3C//DTD SVG 1.1//EN" "http://www.w3.org/Graphics/SVG/1.1/DTD/svg11.dtd">
<!-- Creator: CorelDRAW 2019 (64-Bit) -->
<svg xmlns="http://www.w3.org/2000/svg" xml:space="preserve" width="386.205mm" height="352.415mm" version="1.1" style="shape-rendering:geometricPrecision; text-rendering:geometricPrecision; image-rendering:optimizeQuality; fill-rule:evenodd; clip-rule:evenodd"
viewBox="0 0 35682902.81 32560931.89"
 xmlns:xlink="http://www.w3.org/1999/xlink"
 xmlns:xodm="http://www.corel.com/coreldraw/odm/2003">
 <defs>
  <style type="text/css">
   <![CDATA[
    .fil0 {fill:#FFB121}
   ]]>
  </style>
 </defs>
 <g id="Capa_x0020_1">
  <metadata id="CorelCorpID_0Corel-Layer"/>
  <g id="_2000561245968">
   <path class="fil0" d="M-0 21654069.2c37132.99,1299931.93 1176863.64,7860922.46 1721921.28,8792166.92 2058344.9,399768.68 552218.14,-589729.95 5450650.29,316263.34 1675327.18,309925.13 3353915.85,588103.82 5007318.02,938552.79 6931821.53,1469141.59 5535033.38,1198936.47 13859282.09,-1931950.44l8871375.96 -6017632.94c644057.39,-514863.41 1036074.25,-1281841.26 564552.69,-2337114.91 -1509674.67,-896393.59 -2937756.54,508442.05 -4282795.03,1193180.35 -2858990.99,1455476.58 -4318967.13,1208748.67 -4542735.22,2419058.8 -11299.74,61053.7 -20012.46,143810.66 -32411.68,213872.73 -103730.31,586255.95 83200.45,200364.79 -166622.64,918909.91 -935004.88,2688894.35 -5917450.54,1559354.72 -8051687.55,1294397.55 -1411478.74,-175270.68 -3227678.46,283121.75 -3903556.21,87921.76 247245.31,-2899662.65 6598650.17,585221.14 11024368.88,-1169989.55 321067.8,-2750391.53 -1589475.03,-2922040.39 -5301591.68,-3153560.3 -4232006.26,-263996.27 -3226643.65,296121.53 -7046694.51,-1435833.69 -1958088.59,-887690.11 -4156622.32,-1819442.73 -6502302.11,-1823581.97 -2911396.64,-5090.89 -3768596.86,1416874.53 -6669072.58,1695339.63z"/>
   <path class="fil0" d="M20419099.22 11443937.51c-7866678.58,1077780.73 -7494822.01,6855994.1 -4094247.39,7537267.64l9357671.26 90508.78c1944497.49,-1108.72 4191251.44,293968.76 5380070.81,-1011636.14 2932222.16,-3220296.21 -2553574.66,-7724420.14 -10643494.69,-6616140.28z"/>
   <path class="fil0" d="M21228818.36 281883.67c-5961817.95,2034054.62 -3314343.67,11626562.73 3373771.24,9559357.28 2200982.16,-680303.41 3885909.03,-3349776.62 3163372.5,-6219836.36 -650109.18,-2582586.25 -3628916.2,-4331745.17 -6537143.74,-3339520.92z"/>
  </g>
 </g>
</svg>
