<?xml version="1.0" encoding="UTF-8"?>
<!DOCTYPE svg PUBLIC "-//W3C//DTD SVG 1.1//EN" "http://www.w3.org/Graphics/SVG/1.1/DTD/svg11.dtd">
<!-- Creator: CorelDRAW 2019 (64-Bit) -->
<svg xmlns="http://www.w3.org/2000/svg" xml:space="preserve" width="265.867mm" height="352.416mm" version="1.1" style="shape-rendering:geometricPrecision; text-rendering:geometricPrecision; image-rendering:optimizeQuality; fill-rule:evenodd; clip-rule:evenodd"
viewBox="0 0 12770.9 16928.29"
 xmlns:xlink="http://www.w3.org/1999/xlink"
 xmlns:xodm="http://www.corel.com/coreldraw/odm/2003">
 <defs>
  <style type="text/css">
   <![CDATA[
    .fil0 {fill:#FFB121}
   ]]>
  </style>
 </defs>
 <g id="Capa_x0020_1">
  <metadata id="CorelCorpID_0Corel-Layer"/>
  <g id="_2000521008256">
   <path class="fil0" d="M9742.77 3794.23c-44.46,-109.16 -413.43,-488.29 -508.77,-568.52 -349.49,-294.08 -611.42,-494.52 -1074.17,-705.33 -2207.59,-1005.66 -4713.2,23.43 -5663.5,2152.28 -709.91,1590.34 -308.54,3294.06 591.62,4394.13 223.12,272.67 418.57,482.63 642.44,781.01 191.82,255.67 391.65,562.94 553.5,887.42 260.84,522.94 412.24,1079.31 457.31,1677.36 17.86,236.99 0.53,476.68 16.98,709l1272.98 1.25 3.39 -6051.76c-56.23,26.19 -271.99,254.58 -331.69,316.47 -317.94,329.62 -522.79,81.89 -784.86,-184.92 -40.46,-41.19 -105.03,-108.22 -160.63,-161.43 -28.11,-26.9 -44.98,-49.99 -74.19,-78.47l-408.28 -405.43c-115.76,-119.08 -243.63,-227.78 -185.57,-444.87 39.36,-147.15 189.67,-272.68 376.64,-251.79 206.96,23.12 256.42,185.94 387.87,260.24l267.81 284.79c94.07,93.33 185.42,196.9 282.71,279.46 75.83,-40.35 370.71,-358.17 457.48,-443.47 80.88,-79.51 148.91,-147.9 228.44,-229.55 340.33,-349.45 542.59,-51.46 814.09,220.74 91.51,91.75 384.36,412.52 466.18,451.05l675.6 -677.56c43.8,-28.85 28.58,-25.39 65.22,-57.63 16.61,-14.62 45.22,-35.43 69.87,-49.01 83.43,-45.93 126.27,-38.69 223.17,-37.12 288.78,67.45 415.37,376.72 145.7,643.34 -174.12,172.16 -372.12,369.6 -551.25,550.62 -90.43,91.38 -180.77,185.56 -271.62,270.85 -110.79,103.99 -170.52,201.49 -339.37,211.51 -277.34,16.48 -477.86,-361.86 -647.8,-469.15l1.36 2222.75 -2.4 3830.69 1273.01 -0.69c55.6,-665.58 -43.32,-743.28 153.68,-1544.63 245.95,-1000.51 798.22,-1670.06 1418,-2394.29 129.22,-151 257.89,-302.09 367.64,-479.69 29.62,-47.92 142.61,-250.06 161.92,-258.88 167.39,-434.33 277.76,-487.5 418.08,-1109.97 231.86,-1028.53 74.3,-2208.1 -476.02,-3100.24 -62.34,-101.06 -247.93,-412.5 -312.55,-440.55z"/>
   <path class="fil0" d="M4688.44 15080.89c-334.35,81.27 -379.19,535.78 -62.88,669.85 122.84,52.07 2045.84,27.03 2338.16,27.03 212.13,0 1027.61,24.73 1171.87,-12.33 347.8,-89.35 366.13,-518.37 65.94,-657.45 -137.79,-63.84 -2036.61,-35.82 -2339.55,-36.26 -221.67,-0.32 -1019.88,-28.18 -1173.54,9.16z"/>
   <path class="fil0" d="M4731.34 13933.04c-377,50.18 -428.53,521.49 -112.24,670 133.51,62.69 2012.18,31.94 2310.73,31.94l1184.4 -4.45c351.39,-50.66 409.26,-535.84 83.18,-673.78 -134.21,-56.78 -918.98,-28.1 -1131.98,-28.38l-2334.08 4.67z"/>
   <path class="fil0" d="M5365.55 16227.8c-130.81,32.9 -186.46,66.57 -245.19,171.74 -56.14,100.54 -57.34,241.43 2.45,344.46 129.5,223.12 377.07,179.21 671.37,179.21 237.62,0 1566.9,17.13 1686.53,-11.54 199.02,-47.71 353.13,-299.72 217.32,-522.41 -133.33,-218.63 -365.23,-173.61 -666.51,-173.61 -229.79,0 -1552.43,-16.4 -1665.97,12.15z"/>
   <path class="fil0" d="M1366.4 8098.61c-137.39,43.14 -720.14,276.79 -798.67,357.59 -249.46,256.66 -5.82,692.03 351.34,587.19 138.51,-40.66 719.43,-283.96 795.23,-355.89 257.66,-244.48 8.9,-700.92 -347.91,-588.89z"/>
   <path class="fil0" d="M241.15 6055.34c-288.38,108.16 -327.93,482.76 -65.34,635.46 116.04,67.47 839.97,78.14 995.64,28.61 290.36,-92.38 308.42,-500.86 58.49,-642.74 -117.26,-66.57 -853.61,-72.04 -988.78,-21.34z"/>
   <path class="fil0" d="M11872.32 3722.95c-122.4,30.42 -746.31,297.05 -805.38,350.46 -254.14,229.8 -52.21,696.79 332.09,601.36 116.07,-28.83 728.13,-288.96 797.79,-352.91 256.96,-235.93 32.71,-687.67 -324.5,-598.91z"/>
   <path class="fil0" d="M4010.64 469.64c-152.18,26.75 -269.18,141.97 -291.8,286.77 -23.47,150.23 73.84,329.53 127.25,450.12 118.29,267.06 180.25,666.98 554.6,605.27 138.06,-22.76 261.94,-140.71 284.02,-291.05 21.42,-145.89 -79.36,-326.3 -129.07,-447.74 -105.09,-256.77 -191.74,-665.45 -545,-603.37z"/>
   <path class="fil0" d="M6299.48 12.93c-335.22,89.67 -265.88,424.95 -265.86,787.76 0.01,169.92 -22.92,340.12 64.77,459.03 195.68,265.36 580.66,144.44 633.57,-131.51 21.56,-112.45 7.88,-380.93 7.89,-513.97 0.01,-171.42 23.62,-331.31 -62.04,-460.62 -65.18,-98.39 -202.4,-187.75 -378.32,-140.69z"/>
   <path class="fil0" d="M733.3 3747.3c-345.8,85.93 -373.31,520.6 -61.39,666.71 131.11,61.41 282.07,119.42 407.77,169.12 138.95,54.94 304.18,156.09 472.85,112.48 308.86,-79.86 362.71,-524.96 32.17,-669.71 -169.86,-74.4 -678.44,-321.57 -851.4,-278.59z"/>
   <path class="fil0" d="M11654.95 6042.52c-377.82,96.33 -348.55,478.66 -140.02,630.94 121.53,88.75 302.41,64.69 465.95,63.79 130.67,-0.72 423.13,17.49 534.82,-12.16 291.63,-77.42 343.44,-493.38 102.81,-629.05 -147.34,-83.06 -255.77,-64.76 -451.18,-64.5 -148.48,0.2 -384.75,-21.55 -512.37,10.98z"/>
   <path class="fil0" d="M2057.14 1772.38c-145.76,27.68 -274.56,153.36 -287.46,315.95 -17.09,215.24 124.91,292.53 211.28,390.1l295.81 297.58c94.43,91.48 198.84,225.52 409.19,186.49 151.17,-28.06 268.15,-156.02 282.6,-313.85 18.83,-205.64 -102.09,-273.49 -208.46,-390.21l-295.59 -297.72c-96.16,-94.87 -202.77,-227.21 -407.37,-188.35z"/>
   <path class="fil0" d="M8577.76 474.44c-233.29,80.02 -301.59,394.45 -437.98,722.52 -63.7,153.22 -127.61,283.77 -21.09,448.22 65.38,100.93 220.35,207.61 411.23,145.18 222.13,-72.66 299.81,-421.5 428.18,-723.72 66.51,-156.58 127.31,-290.53 21.72,-451.12 -66.69,-101.43 -215.9,-204.92 -402.06,-141.07z"/>
   <path class="fil0" d="M10564.76 1782.44c-177.74,49.41 -497.55,437.83 -632.58,562.67 -57.92,53.54 -90.53,85 -115.38,172.78 -73.84,260.8 157.67,514.68 438.81,437.26 144.35,-39.75 477.22,-420.09 625.9,-558.72 274.43,-255.87 46.61,-715.01 -316.76,-613.99z"/>
   <path class="fil0" d="M10058.93 9821.88c-161.14,54.04 -264.47,163.38 -255.11,352.52 7.9,159.68 119.75,258.11 238.41,362.05 106.16,92.98 174.91,181.38 296.99,295.76 111.61,104.58 202.54,223.37 421.08,153.25 130.54,-41.89 254.62,-167.26 244.01,-354.09 -10.27,-180.64 -129.29,-260.58 -235,-364.54 -242.96,-238.92 -440.18,-535.58 -710.38,-444.95z"/>
   <path class="fil0" d="M11202.19 8083.59c-274.98,94.02 -372.15,506.81 10.54,672.08 140,60.46 268.8,109.3 408.97,167.49 133.63,55.48 289.18,151.07 453.38,91.67 319.56,-115.61 327.88,-527.56 3.16,-667.2 -133.92,-57.59 -270.59,-110.78 -408.03,-168.54 -141.27,-59.37 -294.69,-154.77 -468.03,-95.51z"/>
   <path class="fil0" d="M2869.51 9923.02c-94.73,-146.79 -349.02,-185 -532.48,14.61 -137.31,149.4 -275.35,282.59 -406.24,407.41 -365.97,348.97 -46.95,686.81 232.53,655.85 188.11,-20.84 313.21,-220.1 453.83,-342.82 96.58,-84.29 318.03,-309.97 349.92,-435.23 22.45,-88.14 -6.91,-202.69 -68.44,-272.88 -18.9,-21.56 -7.53,-10.51 -29.11,-26.94z"/>
  </g>
 </g>
</svg>
