<?xml version="1.0" encoding="UTF-8"?>
<!DOCTYPE svg PUBLIC "-//W3C//DTD SVG 1.1//EN" "http://www.w3.org/Graphics/SVG/1.1/DTD/svg11.dtd">
<!-- Creator: CorelDRAW 2019 (64-Bit) -->
<svg xmlns="http://www.w3.org/2000/svg" xml:space="preserve" width="605.979mm" height="352.416mm" version="1.1" style="shape-rendering:geometricPrecision; text-rendering:geometricPrecision; image-rendering:optimizeQuality; fill-rule:evenodd; clip-rule:evenodd"
viewBox="0 0 105277.79 61225.77"
 xmlns:xlink="http://www.w3.org/1999/xlink"
 xmlns:xodm="http://www.corel.com/coreldraw/odm/2003">
 <defs>
  <style type="text/css">
   <![CDATA[
    .fil0 {fill:#FFB121}
   ]]>
  </style>
 </defs>
 <g id="Capa_x0020_1">
  <metadata id="CorelCorpID_0Corel-Layer"/>
  <g id="_1999919476208">
   <path class="fil0" d="M42703.58 19855.77l-22491.31 3279.31c4058.35,4334 12188.19,13039.64 16044.85,15515.19l-3739.87 22575.49c4114.35,-1178.99 17793.09,-10062.8 20118.47,-10045.42 1863.65,13.9 16239.03,8843.06 19996.65,10043.5l-3867.07 -22619.88c4496.14,-3343.59 11977.81,-10784.72 16329.38,-15362.9l-22551.93 -3271.59c-2190.65,-4856.91 -7422.41,-16841.08 -9894.49,-19969.44 -3092.86,3919.77 -7156.61,14150.89 -9944.68,19855.75z"/>
   <path class="fil0" d="M75377.76 48541.85c5570.15,-2606.41 4555.99,-3738.11 10251.21,-641.99 3937.91,2140.65 6415.01,3661.31 10368.93,5451.61 -376.6,-4167.42 -3705.31,-14199.52 -1777.76,-17320.17 1251.77,-2026.75 9464.62,-9204.41 11057.65,-10149.85 -2239.28,-1849.95 -11284.46,-2525.15 -14113.82,-2437.91 -2723.02,4179.18 -7356.41,7448.08 -10891.84,10843.98 -5517.63,5299.51 -7739.55,4308.7 -4894.37,14254.33z"/>
   <path class="fil0" d="M-0 24864.59c1025.54,1859.41 711.29,1331.29 2301.44,2871.05l8530.17 7825.25c2371.91,3261.55 -1377.24,13637.24 -1573.35,17804.09 16528.38,-8024.46 11784.2,-9003.87 20237.75,-4982.57 106.74,-159.82 225.64,-613.24 262.89,-513.45l1410.82 -5597.16c263.1,-3397.04 -5764.88,-7556.75 -10152.55,-11494.66 -12706.49,-11403.36 -3521.18,-6377.76 -21017.18,-5912.56z"/>
   <path class="fil0" d="M18940.22 18458.27l9610.35 -1168.97 -4284 -9386.44c-1916.56,2215.17 -4547.88,7620.46 -5326.35,10555.41z"/>
   <polygon class="fil0" points="76556.77,17181.8 86329.26,18535.86 81406.92,7931.23 "/>
  </g>
 </g>
</svg>
