<?xml version="1.0" encoding="UTF-8"?>
<!DOCTYPE svg PUBLIC "-//W3C//DTD SVG 1.1//EN" "http://www.w3.org/Graphics/SVG/1.1/DTD/svg11.dtd">
<!-- Creator: CorelDRAW 2019 (64-Bit) -->
<svg xmlns="http://www.w3.org/2000/svg" xml:space="preserve" width="398.448mm" height="352.416mm" version="1.1" style="shape-rendering:geometricPrecision; text-rendering:geometricPrecision; image-rendering:optimizeQuality; fill-rule:evenodd; clip-rule:evenodd"
viewBox="0 0 17854.29 15791.62"
 xmlns:xlink="http://www.w3.org/1999/xlink"
 xmlns:xodm="http://www.corel.com/coreldraw/odm/2003">
 <defs>
  <style type="text/css">
   <![CDATA[
    .fil0 {fill:#FFB121}
   ]]>
  </style>
 </defs>
 <g id="Capa_x0020_1">
  <metadata id="CorelCorpID_0Corel-Layer"/>
  <g id="_2000406106096">
   <path class="fil0" d="M10255.75 4680.45c-433.43,787.72 -279.2,1068.24 -310.28,2034.35l-1953.62 0.89c-10.84,-1012.38 96.89,-1620.34 -492.8,-2256.17 -606.81,-654.29 -1327.2,-563.09 -2184.23,-563.73 -900.02,-0.66 -1726.67,-113.8 -2344.87,746.53 -47.99,66.79 -89.19,132.35 -131.37,212.7 -298.72,569.03 -214.57,1167.51 -209.71,1861.57 -487.48,-5.89 -978.12,-0.51 -1466.26,-1.13 -495.92,-0.64 -787.48,191.75 -977.42,477.05 -236.09,354.61 -171.95,804.56 -171.95,1279.09l0 5851.65c0,443.19 -31.97,1020.87 3.48,1447.2 36.88,6.37 721.79,27.97 755.96,-12.25 37.38,-44 9.71,-6548.84 11.84,-7523.24 0.4,-180.14 -42.48,-442.73 65.05,-571.61 124.26,-148.94 275.02,-110.68 506.78,-110.58 397.59,0.18 878.7,23.85 1266.66,-4.37 51.12,558.17 -8.72,1268.58 5.64,1849.08 13.18,532.9 383.1,899.15 854.22,991.46 -26.67,579.73 -2.63,1218.27 -2.63,1804.49 0,321.83 -17.01,2498.4 7.89,2709.81 28.79,244.54 175.48,493.43 296.32,605.99 385.38,358.95 911.32,273.28 1530.37,273.28 607.28,0 1157.82,88.3 1518.36,-285.21 396.4,-410.64 304.24,-824.03 304.24,-1496.74 0,-1206.05 -7.69,-2413.97 0.51,-3619.61 458.38,-54.75 835.4,-473.19 852.67,-983.95 20.25,-598.93 -34.67,-1250.22 3.85,-1840.03 308.46,-25.3 1714.12,-4.24 2139.37,-4.24l6497.25 -0.12c495.59,-2.1 441.64,193.04 442.85,639.32l-0.03 6497.05c0.5,317.9 -27.82,781 3.81,1080.62l764.99 7.78c25.13,-456.33 1.46,-974.24 2.14,-1432.62l-0.02 -5808.62c0,-448.35 60.4,-958.1 -146.69,-1304.14 -166.26,-277.82 -453.5,-512.91 -916.46,-516.48 -479.77,-3.7 -993.99,-14.29 -1471.19,2.77 -15.02,-645.81 83.01,-1296.2 -195.73,-1829.16 -644.11,-1231.57 -1809.06,-993.62 -3066.24,-993.59 -561.9,0.01 -1150.68,71.7 -1528.98,497.09 -87.51,75.15 -205.6,193.84 -263.78,287.83z"/>
   <path class="fil0" d="M12446.8 13.26c-1046.56,133.54 -1734.36,1006.82 -1627.64,2005.22 100.43,939.65 953.89,1735.76 2024.86,1608.75 916.98,-108.75 1717.86,-949.67 1589.62,-2017.11 -120.1,-999.68 -1040.52,-1717.62 -1986.84,-1596.86z"/>
   <path class="fil0" d="M5170.25 9.94c-959.77,82.73 -1761.66,895.5 -1673.5,1960.18 43.77,528.52 319.69,973.26 596.04,1205.03 559,468.83 1371.73,630.58 2072.92,253.22 635.69,-342.1 1021.7,-1033.82 954.89,-1775.29 -84.28,-935.22 -916.21,-1732.28 -1950.35,-1643.14z"/>
  </g>
 </g>
</svg>
