<?xml version="1.0" encoding="UTF-8"?>
<!DOCTYPE svg PUBLIC "-//W3C//DTD SVG 1.1//EN" "http://www.w3.org/Graphics/SVG/1.1/DTD/svg11.dtd">
<!-- Creator: CorelDRAW 2019 (64-Bit) -->
<svg xmlns="http://www.w3.org/2000/svg" xml:space="preserve" width="20.9127mm" height="15.24mm" version="1.1" style="shape-rendering:geometricPrecision; text-rendering:geometricPrecision; image-rendering:optimizeQuality; fill-rule:evenodd; clip-rule:evenodd"
viewBox="0 0 131.24 95.64"
 xmlns:xlink="http://www.w3.org/1999/xlink"
 xmlns:xodm="http://www.corel.com/coreldraw/odm/2003">
 <defs>
  <style type="text/css">
   <![CDATA[
    .fil0 {fill:none}
    .fil1 {fill:#FFB121}
    .fil2 {fill:white}
   ]]>
  </style>
 </defs>
 <g id="Capa_x0020_1">
  <metadata id="CorelCorpID_0Corel-Layer"/>
  <g id="_2098662971136">
   <rect class="fil0" x="0" width="131.24" height="95.64"/>
   <g>
    <path class="fil1" d="M58.78 23.69l0 5.36c0,0.11 0.03,0.19 0.1,0.26 0.07,0.06 0.14,0.08 0.23,0.08 0.09,0 0.17,-0.03 0.23,-0.1 0.07,-0.06 0.11,-0.15 0.11,-0.25l0 -5.36c0,-0.1 -0.04,-0.18 -0.11,-0.23 -0.06,-0.05 -0.14,-0.07 -0.23,-0.07 -0.09,0 -0.17,0.03 -0.23,0.09 -0.06,0.05 -0.1,0.12 -0.1,0.22z"/>
    <path class="fil1" d="M59.11 21.3l0 0c-0.17,0 -0.3,0.06 -0.39,0.17 -0.08,0.11 -0.13,0.24 -0.13,0.39 0,0.15 0.04,0.27 0.13,0.37 0.09,0.11 0.22,0.17 0.39,0.17 0.16,0 0.29,-0.06 0.39,-0.17 0.09,-0.11 0.13,-0.23 0.13,-0.37 0,-0.15 -0.04,-0.28 -0.13,-0.39 -0.1,-0.11 -0.23,-0.17 -0.39,-0.17z"/>
    <path class="fil1" d="M61.27 23.84l0 5.23c0,0.1 0.03,0.18 0.1,0.24 0.06,0.06 0.14,0.08 0.23,0.08 0.08,0 0.16,-0.03 0.22,-0.08 0.07,-0.06 0.11,-0.14 0.11,-0.24l0 -4.08c0.23,-0.37 0.48,-0.62 0.74,-0.78 0.26,-0.15 0.57,-0.23 0.94,-0.23 0.34,0 0.6,0.1 0.8,0.29 0.17,0.18 0.26,0.42 0.26,0.72l0 4.07c0,0.1 0.03,0.18 0.1,0.24 0.06,0.06 0.14,0.08 0.23,0.08 0.09,0 0.16,-0.03 0.22,-0.08 0.07,-0.06 0.1,-0.14 0.1,-0.24l0 -3.99c0.2,-0.39 0.43,-0.67 0.68,-0.84 0.25,-0.18 0.58,-0.26 0.97,-0.26 0.35,0 0.62,0.1 0.81,0.29 0.17,0.18 0.26,0.42 0.26,0.72l0 4.07c0,0.1 0.03,0.18 0.1,0.24 0.06,0.06 0.14,0.08 0.23,0.08 0.09,0 0.16,-0.03 0.22,-0.08 0.07,-0.06 0.11,-0.14 0.11,-0.24l0 -4.18c0,-0.38 -0.14,-0.71 -0.43,-1 -0.33,-0.33 -0.77,-0.49 -1.32,-0.49 -0.4,0 -0.76,0.09 -1.08,0.27 -0.3,0.16 -0.53,0.39 -0.72,0.67 -0.12,-0.27 -0.29,-0.48 -0.49,-0.63 -0.29,-0.21 -0.65,-0.32 -1.08,-0.32 -0.34,0 -0.68,0.09 -1.01,0.27 -0.27,0.15 -0.48,0.33 -0.65,0.56l0 -0.39c0,-0.12 -0.04,-0.21 -0.11,-0.27 -0.06,-0.06 -0.14,-0.09 -0.22,-0.09 -0.09,0 -0.17,0.03 -0.23,0.09 -0.06,0.06 -0.1,0.16 -0.1,0.27z"/>
    <path class="fil1" d="M74.12 27.86c-0.16,0.29 -0.39,0.51 -0.7,0.67 -0.34,0.18 -0.76,0.27 -1.24,0.27 -0.43,0 -0.74,-0.09 -0.94,-0.27 -0.2,-0.17 -0.29,-0.43 -0.29,-0.77 0,-0.36 0.1,-0.63 0.31,-0.81 0.22,-0.2 0.59,-0.33 1.11,-0.4 0.53,-0.07 0.94,-0.15 1.24,-0.24 0.24,-0.08 0.42,-0.16 0.51,-0.24l0 1.79zm-1.44 -4.46l0 0c-0.59,0 -1.06,0.13 -1.42,0.39 -0.36,0.27 -0.59,0.68 -0.67,1.22 -0.02,0.1 0,0.19 0.06,0.25 0.06,0.06 0.13,0.1 0.21,0.1 0.09,0.01 0.17,-0.01 0.23,-0.06 0.08,-0.05 0.12,-0.12 0.14,-0.21 0.03,-0.35 0.16,-0.62 0.37,-0.8 0.24,-0.21 0.6,-0.32 1.07,-0.32 0.49,0 0.86,0.09 1.11,0.27 0.23,0.18 0.35,0.44 0.35,0.78 0,0.3 -0.11,0.51 -0.32,0.62 -0.22,0.12 -0.7,0.23 -1.45,0.34 -0.85,0.11 -1.43,0.34 -1.76,0.71 -0.22,0.25 -0.32,0.61 -0.32,1.07 0,0.51 0.16,0.91 0.47,1.19 0.32,0.29 0.8,0.43 1.43,0.43 0.47,0 0.88,-0.08 1.24,-0.23 0.27,-0.12 0.51,-0.28 0.72,-0.48 0,0.22 0.06,0.37 0.19,0.45 0.15,0.1 0.42,0.15 0.83,0.15 0.2,0 0.3,-0.1 0.3,-0.3 -0.01,-0.19 -0.1,-0.29 -0.3,-0.29 -0.12,0 -0.22,-0.04 -0.29,-0.11 -0.06,-0.06 -0.1,-0.15 -0.1,-0.27l0 -3.33c0,-0.55 -0.21,-0.96 -0.61,-1.23 -0.36,-0.23 -0.85,-0.35 -1.48,-0.35zm0.94 -1.77l0 0 -1.1 0 -0.76 1.39 0.62 0 1.24 -1.39z"/>
    <path class="fil1" d="M80.84 23.8l0 0.56c-0.22,-0.32 -0.47,-0.56 -0.77,-0.73 -0.3,-0.16 -0.65,-0.23 -1.05,-0.23 -0.8,0 -1.43,0.3 -1.88,0.91 -0.4,0.55 -0.6,1.21 -0.6,2 0,0.81 0.2,1.48 0.6,2.01 0.45,0.6 1.08,0.89 1.88,0.89 0.43,0 0.81,-0.1 1.16,-0.28 0.29,-0.17 0.52,-0.38 0.66,-0.62l0 0.62c0,0.33 -0.15,0.61 -0.44,0.83 -0.32,0.25 -0.78,0.38 -1.38,0.38 -0.48,0 -0.86,-0.07 -1.14,-0.22 -0.27,-0.14 -0.46,-0.33 -0.59,-0.59 -0.05,-0.08 -0.12,-0.13 -0.2,-0.15 -0.08,-0.02 -0.16,-0.01 -0.23,0.04 -0.08,0.04 -0.14,0.1 -0.16,0.18 -0.03,0.08 -0.02,0.17 0.03,0.26 0.19,0.35 0.48,0.62 0.87,0.79 0.38,0.18 0.85,0.26 1.41,0.26 0.8,0 1.43,-0.19 1.88,-0.57 0.41,-0.33 0.61,-0.74 0.61,-1.23l0 -5.12c0,-0.1 -0.04,-0.18 -0.11,-0.23 -0.06,-0.05 -0.14,-0.07 -0.23,-0.07 -0.09,0 -0.17,0.02 -0.23,0.07 -0.06,0.06 -0.09,0.13 -0.09,0.23zm-1.83 0.18l0 0c0.59,0 1.05,0.25 1.39,0.74 0.29,0.43 0.44,0.96 0.44,1.59 0,0.66 -0.15,1.2 -0.44,1.62 -0.33,0.47 -0.79,0.7 -1.39,0.7 -0.6,0 -1.06,-0.23 -1.38,-0.7 -0.29,-0.42 -0.43,-0.96 -0.43,-1.62 0,-0.62 0.14,-1.15 0.43,-1.59 0.34,-0.49 0.8,-0.74 1.38,-0.74z"/>
    <path class="fil1" d="M87.11 27.62c-0.17,0.36 -0.36,0.64 -0.58,0.82 -0.28,0.25 -0.63,0.37 -1.05,0.37 -0.53,0 -0.96,-0.24 -1.27,-0.73 -0.27,-0.41 -0.42,-0.91 -0.45,-1.5l4.13 0 0 -0.17c0,-0.82 -0.2,-1.52 -0.61,-2.08 -0.45,-0.62 -1.05,-0.93 -1.8,-0.93 -0.75,0 -1.34,0.31 -1.79,0.93 -0.4,0.57 -0.6,1.26 -0.6,2.08 0,0.81 0.2,1.5 0.6,2.06 0.44,0.62 1.04,0.93 1.79,0.93 0.53,0 0.99,-0.14 1.39,-0.41 0.38,-0.26 0.68,-0.64 0.88,-1.13 0.04,-0.1 0.04,-0.2 0,-0.29 -0.04,-0.08 -0.09,-0.13 -0.18,-0.16 -0.09,-0.04 -0.18,-0.04 -0.26,-0.01 -0.09,0.04 -0.16,0.11 -0.2,0.22zm-3.34 -1.63l0 0c0.04,-0.51 0.19,-0.95 0.45,-1.32 0.32,-0.45 0.73,-0.68 1.25,-0.68 0.52,0 0.94,0.23 1.27,0.69 0.26,0.38 0.41,0.81 0.45,1.31l-3.43 0z"/>
    <path class="fil1" d="M89.47 23.82l0 5.23c0,0.11 0.03,0.2 0.1,0.26 0.06,0.06 0.14,0.1 0.23,0.1 0.08,-0.01 0.16,-0.04 0.22,-0.1 0.07,-0.07 0.11,-0.16 0.11,-0.27l0 -3.75c0.24,-0.45 0.53,-0.78 0.86,-1 0.31,-0.21 0.67,-0.32 1.07,-0.32 0.36,0 0.65,0.11 0.87,0.34 0.2,0.2 0.29,0.45 0.29,0.75l0 3.99c0,0.1 0.03,0.19 0.09,0.26 0.06,0.06 0.14,0.08 0.23,0.08 0.08,0 0.16,-0.03 0.22,-0.08 0.07,-0.07 0.1,-0.16 0.1,-0.26l0 -3.99c0,-0.46 -0.15,-0.84 -0.46,-1.15 -0.34,-0.34 -0.79,-0.51 -1.36,-0.51 -0.44,0 -0.83,0.09 -1.15,0.28 -0.32,0.18 -0.58,0.44 -0.78,0.79l0 -0.65c0,-0.1 -0.04,-0.19 -0.11,-0.25 -0.06,-0.06 -0.14,-0.08 -0.22,-0.08 -0.09,0 -0.17,0.03 -0.23,0.08 -0.06,0.06 -0.1,0.15 -0.1,0.25z"/>
    <path class="fil1" d="M99.46 27.62c-0.17,0.36 -0.36,0.64 -0.58,0.82 -0.28,0.25 -0.63,0.37 -1.05,0.37 -0.53,0 -0.96,-0.24 -1.27,-0.73 -0.28,-0.41 -0.42,-0.91 -0.45,-1.5l4.13 0 0 -0.17c0,-0.82 -0.2,-1.52 -0.61,-2.08 -0.45,-0.62 -1.05,-0.93 -1.8,-0.93 -0.75,0 -1.35,0.31 -1.79,0.93 -0.4,0.57 -0.6,1.26 -0.6,2.08 0,0.81 0.2,1.5 0.6,2.06 0.44,0.62 1.04,0.93 1.79,0.93 0.53,0 0.99,-0.14 1.39,-0.41 0.39,-0.26 0.68,-0.64 0.88,-1.13 0.04,-0.1 0.04,-0.2 0,-0.29 -0.04,-0.08 -0.1,-0.13 -0.18,-0.16 -0.09,-0.04 -0.18,-0.04 -0.26,-0.01 -0.09,0.04 -0.16,0.11 -0.2,0.22zm-3.34 -1.63l0 0c0.04,-0.51 0.19,-0.95 0.45,-1.32 0.32,-0.45 0.73,-0.68 1.26,-0.68 0.52,0 0.94,0.23 1.27,0.69 0.26,0.38 0.41,0.81 0.45,1.31l-3.43 0z"/>
    <path class="fil1" d="M103.59 23.4c-0.57,0 -1.03,0.13 -1.38,0.38 -0.37,0.27 -0.56,0.63 -0.56,1.1 0,0.43 0.15,0.78 0.46,1.04 0.28,0.25 0.73,0.45 1.36,0.61 0.69,0.17 1.16,0.35 1.41,0.56 0.21,0.16 0.32,0.38 0.32,0.67 0,0.31 -0.12,0.55 -0.37,0.74 -0.26,0.2 -0.61,0.3 -1.07,0.3 -0.55,0 -0.94,-0.1 -1.18,-0.3 -0.23,-0.19 -0.34,-0.47 -0.34,-0.83 -0.01,-0.1 -0.05,-0.17 -0.12,-0.22 -0.06,-0.05 -0.14,-0.07 -0.24,-0.06 -0.09,0 -0.17,0.03 -0.23,0.08 -0.06,0.06 -0.09,0.14 -0.08,0.24 0.02,0.55 0.22,0.97 0.59,1.26 0.37,0.29 0.9,0.43 1.6,0.43 0.69,0 1.22,-0.16 1.6,-0.48 0.34,-0.29 0.51,-0.67 0.51,-1.14 0,-0.47 -0.14,-0.84 -0.43,-1.11 -0.3,-0.29 -0.82,-0.52 -1.56,-0.69 -0.61,-0.16 -1.02,-0.32 -1.24,-0.49 -0.21,-0.17 -0.32,-0.39 -0.32,-0.68 0,-0.25 0.12,-0.45 0.36,-0.61 0.24,-0.15 0.54,-0.22 0.9,-0.22 0.47,0 0.82,0.09 1.06,0.26 0.23,0.16 0.35,0.4 0.38,0.7 0.01,0.1 0.05,0.18 0.12,0.23 0.07,0.05 0.15,0.07 0.24,0.06 0.1,-0.01 0.18,-0.05 0.24,-0.11 0.07,-0.07 0.1,-0.16 0.09,-0.25 -0.03,-0.43 -0.21,-0.77 -0.52,-1.03 -0.36,-0.3 -0.9,-0.45 -1.61,-0.45z"/>
    <path class="fil2" d="M44.14 34.52c0.58,0 1.03,0.19 1.36,0.57 0.29,0.34 0.44,0.76 0.44,1.27l0 11.81c0,0.2 -0.06,0.36 -0.17,0.47 -0.12,0.11 -0.26,0.17 -0.42,0.17 -0.15,0 -0.29,-0.06 -0.4,-0.17 -0.13,-0.11 -0.19,-0.27 -0.19,-0.47l0 -6 -4.9 0c-0.61,0 -1.11,0.15 -1.53,0.44 -0.45,0.3 -0.68,0.72 -0.68,1.25 0,0.95 -0.04,1.8 -0.11,2.54 -0.1,0.85 -0.25,1.52 -0.44,2.03 -0.06,0.17 -0.18,0.28 -0.34,0.34 -0.15,0.05 -0.3,0.05 -0.46,0 -0.16,-0.07 -0.28,-0.17 -0.36,-0.3 -0.07,-0.16 -0.07,-0.35 0,-0.55 0.16,-0.46 0.29,-1.01 0.38,-1.67 0.09,-0.72 0.13,-1.58 0.13,-2.56 0,-0.62 0.2,-1.12 0.59,-1.5 0.33,-0.33 0.71,-0.51 1.14,-0.55 -0.68,-0.24 -1.23,-0.65 -1.63,-1.23 -0.4,-0.6 -0.6,-1.28 -0.6,-2.05 0,-1.03 0.33,-1.91 0.98,-2.64 0.73,-0.8 1.71,-1.19 2.94,-1.19l4.28 0zm-4.15 6.6l0 0 4.76 0 0 -4.68c0,-0.24 -0.06,-0.44 -0.19,-0.59 -0.15,-0.18 -0.37,-0.27 -0.64,-0.27l-3.93 0c-0.88,0 -1.59,0.29 -2.13,0.87 -0.48,0.53 -0.72,1.17 -0.72,1.9 0,0.72 0.24,1.35 0.72,1.88 0.54,0.59 1.25,0.89 2.13,0.89z"/>
    <path class="fil2" d="M57.89 34.68l-6.92 0c-0.58,0 -1.04,0.19 -1.36,0.57 -0.29,0.34 -0.44,0.76 -0.44,1.27l0 10.3c0,0.49 0.15,0.91 0.44,1.25 0.33,0.38 0.78,0.57 1.37,0.57l7.17 0c0.19,0 0.34,-0.06 0.45,-0.17 0.1,-0.1 0.15,-0.22 0.15,-0.36 0,-0.15 -0.05,-0.28 -0.15,-0.38 -0.11,-0.1 -0.27,-0.15 -0.45,-0.15l-6.95 0c-0.28,0 -0.49,-0.09 -0.64,-0.27 -0.13,-0.15 -0.19,-0.34 -0.19,-0.57l0 -4.78 6.87 0c0.19,0 0.34,-0.06 0.45,-0.17 0.1,-0.1 0.15,-0.22 0.15,-0.36 0,-0.15 -0.05,-0.28 -0.15,-0.38 -0.11,-0.1 -0.27,-0.15 -0.45,-0.15l-6.87 0 0 -4.29c0,-0.24 0.06,-0.44 0.19,-0.59 0.15,-0.18 0.37,-0.26 0.64,-0.26l6.7 0c0.17,0 0.32,-0.06 0.43,-0.17 0.1,-0.1 0.15,-0.22 0.15,-0.36 0,-0.15 -0.05,-0.28 -0.15,-0.38 -0.11,-0.1 -0.26,-0.15 -0.43,-0.15z"/>
    <path class="fil2" d="M63.08 43.03l2.64 -7.21 0.05 0 2.62 7.21 -5.31 0zm1.58 -7.77l0 0 -4.69 12.86c-0.09,0.2 -0.09,0.38 -0.02,0.53 0.07,0.15 0.19,0.25 0.34,0.31 0.15,0.05 0.3,0.04 0.44,-0.04 0.16,-0.09 0.28,-0.23 0.36,-0.42l1.61 -4.42 6.09 0 1.59 4.42c0.08,0.19 0.19,0.33 0.34,0.42 0.15,0.06 0.3,0.07 0.45,0.02 0.15,-0.05 0.26,-0.15 0.32,-0.29 0.08,-0.16 0.08,-0.34 0.02,-0.53l-4.7 -12.86c-0.1,-0.29 -0.25,-0.52 -0.46,-0.67 -0.19,-0.14 -0.39,-0.21 -0.6,-0.21 -0.24,0 -0.46,0.07 -0.65,0.21 -0.2,0.15 -0.35,0.38 -0.45,0.67z"/>
    <path class="fil2" d="M81.92 34.68l-9.05 0c-0.3,0 -0.46,0.18 -0.46,0.54 0,0.36 0.15,0.53 0.46,0.53l4.02 0 0 12.64c0,0.18 0.06,0.32 0.17,0.44 0.11,0.1 0.25,0.15 0.42,0.15 0.15,0 0.29,-0.05 0.4,-0.15 0.13,-0.11 0.19,-0.26 0.19,-0.44l0 -12.64 3.85 0c0.19,0 0.34,-0.06 0.46,-0.17 0.11,-0.1 0.17,-0.22 0.17,-0.36 0,-0.15 -0.06,-0.28 -0.17,-0.38 -0.11,-0.1 -0.27,-0.15 -0.46,-0.15z"/>
    <path class="fil2" d="M85.36 35l0 13.37c0,0.19 0.06,0.34 0.17,0.46 0.12,0.1 0.26,0.15 0.42,0.15 0.15,0 0.29,-0.05 0.4,-0.15 0.13,-0.11 0.19,-0.27 0.19,-0.46l0 -13.37c0,-0.2 -0.06,-0.36 -0.19,-0.47 -0.11,-0.1 -0.25,-0.15 -0.4,-0.15 -0.16,0 -0.3,0.05 -0.42,0.15 -0.11,0.11 -0.17,0.27 -0.17,0.47z"/>
    <path class="fil2" d="M93.47 48.1c0.16,0.58 0.47,0.87 0.91,0.87 0.43,0 0.74,-0.29 0.93,-0.87l4.44 -12.88c0.07,-0.2 0.06,-0.38 -0.02,-0.53 -0.07,-0.14 -0.19,-0.23 -0.34,-0.28 -0.16,-0.05 -0.32,-0.05 -0.45,0.02 -0.17,0.09 -0.27,0.23 -0.32,0.44l-4.19 12.33 -0.08 0 -4.19 -12.33c-0.08,-0.2 -0.19,-0.35 -0.34,-0.44 -0.15,-0.08 -0.3,-0.09 -0.45,-0.04 -0.15,0.05 -0.27,0.15 -0.34,0.28 -0.08,0.16 -0.08,0.35 0,0.55l4.46 12.88z"/>
    <path class="fil2" d="M116.16 34.21c-1.48,0 -2.65,0.3 -3.49,0.91 -0.84,0.62 -1.25,1.48 -1.25,2.58 0,1.14 0.41,2.02 1.23,2.66 0.7,0.52 1.82,0.96 3.37,1.33 1.62,0.37 2.7,0.82 3.24,1.34 0.46,0.44 0.68,1.13 0.68,2.06 0,0.86 -0.43,1.53 -1.3,2.03 -0.72,0.42 -1.53,0.63 -2.44,0.63 -1.21,0 -2.12,-0.24 -2.74,-0.72 -0.69,-0.52 -1.08,-1.35 -1.17,-2.48 -0.03,-0.22 -0.1,-0.38 -0.23,-0.5 -0.11,-0.1 -0.26,-0.14 -0.42,-0.13 -0.15,0.01 -0.28,0.07 -0.38,0.17 -0.13,0.13 -0.18,0.29 -0.15,0.49 0.13,1.47 0.64,2.55 1.55,3.25 0.83,0.66 2.03,0.99 3.58,0.99 1.37,0 2.52,-0.34 3.43,-1.01 0.99,-0.71 1.48,-1.66 1.48,-2.85 0,-1.21 -0.36,-2.15 -1.08,-2.81 -0.74,-0.69 -2.02,-1.21 -3.83,-1.58 -1.38,-0.28 -2.33,-0.64 -2.86,-1.1 -0.51,-0.43 -0.76,-1.03 -0.76,-1.82 0,-0.78 0.32,-1.38 0.97,-1.8 0.61,-0.39 1.44,-0.59 2.5,-0.59 0.99,0 1.75,0.2 2.29,0.61 0.54,0.42 0.89,1.07 1.04,1.97 0.03,0.2 0.11,0.35 0.25,0.45 0.14,0.1 0.29,0.14 0.46,0.13 0.18,-0.02 0.31,-0.11 0.4,-0.25 0.11,-0.15 0.15,-0.35 0.11,-0.59 -0.15,-0.93 -0.52,-1.69 -1.1,-2.26 -0.78,-0.76 -1.91,-1.14 -3.38,-1.14z"/>
    <path class="fil2" d="M108.23 40.64c-0.85,-1.42 -1.56,-3 -2.18,-4.5 -0.17,-0.41 -0.29,-0.73 -0.45,-1.14 -0.14,-0.35 -0.21,-0.82 -0.53,-1.14l-0 7.08c0.61,0.17 0.58,0.13 1.03,0.59 0.28,0.28 0.41,0.75 0.41,1.05 0,1.14 -1.5,2.48 -2.93,1.06 -0.53,-0.53 -0.54,-1.57 -0.01,-2.11 0.47,-0.47 0.42,-0.41 1.01,-0.59l-0.06 -7.04c-0.2,0.21 -0.51,1.21 -0.69,1.65 -0.83,2.08 -1.79,4.42 -3.12,6.2 -0.15,0.21 -0.3,0.35 -0.41,0.55 -0.13,0.23 -0.03,0.34 0.02,0.59 0.36,1.63 0.87,3.51 1.18,5.05 0.21,1.09 0.29,0.99 1.08,0.99l1.12 -0 0 -3.7 2.25 0 0 3.7 1.13 -0c0.4,-0 0.83,0.12 0.99,-0.4 0.11,-0.37 0.17,-0.76 0.26,-1.14l1.03 -4.51c0.21,-0.79 -0.19,-0.66 -1.14,-2.23z"/>
    <path class="fil2" d="M49.78 68.06c-0.93,1.72 0.97,3.35 2.46,2.58 0.68,-0.35 7.04,-7.77 8.08,-8.95 0.8,-0.91 3.56,-3.8 3.98,-4.63 0.81,-1.55 -1.03,-3.21 -2.46,-2.54 -0.72,0.34 -7.03,7.72 -8.08,8.92 -0.86,0.98 -3.5,3.74 -3.98,4.62z"/>
    <path class="fil2" d="M57.65 70.51c-0.55,1 -0.16,2.57 1.29,2.79 1.34,0.21 1.95,-0.83 2.99,-2.01 1.07,-1.22 5.3,-5.69 5.83,-6.71 0.46,-0.88 0.16,-2.38 -1.26,-2.69 -1.31,-0.29 -1.93,0.71 -3.01,1.94 -1.14,1.29 -5.23,5.59 -5.83,6.69z"/>
    <path class="fil1" d="M28.25 26.11c-0.63,1.17 -14.04,13.32 -15.8,14.55 0.13,-6.22 4.38,-12.89 9.11,-15.66 1.8,-1.05 4.12,0.22 6.69,1.11z"/>
    <path class="fil1" d="M44.35 30.46l-20.28 -6.57c5.25,-3.78 16.46,-2.18 18.94,0.62 0.74,0.84 1.31,4.52 1.34,5.95z"/>
    <path class="fil1" d="M16.83 38.23l4.53 20.86c-5.88,-3.29 -9.77,-12.33 -9.05,-16.46 0.2,-1.17 3.48,-4.04 4.52,-4.4z"/>
    <path class="fil1" d="M44.37 62.05c-1.46,-0.63 -1.21,-1.42 -6.25,-2.8 -0.78,-0.21 -1.57,-0.39 -2.39,-0.53l-14.47 -4.73c0.02,1.42 0.65,5.18 1.38,5.98 1.72,1.92 7.84,3.32 13.2,2.64 0.51,0.1 1.04,0.22 1.55,0.36 6.13,1.61 6.12,4.98 8.3,3.31 0.65,-0.5 9.96,-11.24 11.38,-12.85 0.14,-0.16 0.28,-0.32 0.43,-0.48l-5.03 0c-2.55,2.94 -7.2,8.37 -8.09,9.1z"/>
    <path class="fil1" d="M58.78 23.69l0 5.36c0,0.11 0.03,0.19 0.1,0.26 0.07,0.06 0.14,0.08 0.23,0.08 0.09,0 0.17,-0.03 0.23,-0.1 0.07,-0.06 0.11,-0.15 0.11,-0.25l0 -5.36c0,-0.1 -0.04,-0.18 -0.11,-0.23 -0.06,-0.05 -0.14,-0.07 -0.23,-0.07 -0.09,0 -0.17,0.03 -0.23,0.09 -0.06,0.05 -0.1,0.12 -0.1,0.22z"/>
    <path class="fil1" d="M59.11 21.3l0 0c-0.17,0 -0.3,0.06 -0.39,0.17 -0.08,0.11 -0.13,0.24 -0.13,0.39 0,0.15 0.04,0.27 0.13,0.37 0.09,0.11 0.22,0.17 0.39,0.17 0.16,0 0.29,-0.06 0.39,-0.17 0.09,-0.11 0.13,-0.23 0.13,-0.37 0,-0.15 -0.04,-0.28 -0.13,-0.39 -0.1,-0.11 -0.23,-0.17 -0.39,-0.17z"/>
    <path class="fil1" d="M61.27 23.84l0 5.23c0,0.1 0.03,0.18 0.1,0.24 0.06,0.06 0.14,0.08 0.23,0.08 0.08,0 0.16,-0.03 0.22,-0.08 0.07,-0.06 0.11,-0.14 0.11,-0.24l0 -4.08c0.23,-0.37 0.48,-0.62 0.74,-0.78 0.26,-0.15 0.57,-0.23 0.94,-0.23 0.34,0 0.6,0.1 0.8,0.29 0.17,0.18 0.26,0.42 0.26,0.72l0 4.07c0,0.1 0.03,0.18 0.1,0.24 0.06,0.06 0.14,0.08 0.23,0.08 0.09,0 0.16,-0.03 0.22,-0.08 0.07,-0.06 0.1,-0.14 0.1,-0.24l0 -3.99c0.2,-0.39 0.43,-0.67 0.68,-0.84 0.25,-0.18 0.58,-0.26 0.97,-0.26 0.35,0 0.62,0.1 0.81,0.29 0.17,0.18 0.26,0.42 0.26,0.72l0 4.07c0,0.1 0.03,0.18 0.1,0.24 0.06,0.06 0.14,0.08 0.23,0.08 0.09,0 0.16,-0.03 0.22,-0.08 0.07,-0.06 0.11,-0.14 0.11,-0.24l0 -4.18c0,-0.38 -0.14,-0.71 -0.43,-1 -0.33,-0.33 -0.77,-0.49 -1.32,-0.49 -0.4,0 -0.76,0.09 -1.08,0.27 -0.3,0.16 -0.53,0.39 -0.72,0.67 -0.12,-0.27 -0.29,-0.48 -0.49,-0.63 -0.29,-0.21 -0.65,-0.32 -1.08,-0.32 -0.34,0 -0.68,0.09 -1.01,0.27 -0.27,0.15 -0.48,0.33 -0.65,0.56l0 -0.39c0,-0.12 -0.04,-0.21 -0.11,-0.27 -0.06,-0.06 -0.14,-0.09 -0.22,-0.09 -0.09,0 -0.17,0.03 -0.23,0.09 -0.06,0.06 -0.1,0.16 -0.1,0.27z"/>
    <path class="fil1" d="M74.12 27.86c-0.16,0.29 -0.39,0.51 -0.7,0.67 -0.34,0.18 -0.76,0.27 -1.24,0.27 -0.43,0 -0.74,-0.09 -0.94,-0.27 -0.2,-0.17 -0.29,-0.43 -0.29,-0.77 0,-0.36 0.1,-0.63 0.31,-0.81 0.22,-0.2 0.59,-0.33 1.11,-0.4 0.53,-0.07 0.94,-0.15 1.24,-0.24 0.24,-0.08 0.42,-0.16 0.51,-0.24l0 1.79zm-1.44 -4.46l0 0c-0.59,0 -1.06,0.13 -1.42,0.39 -0.36,0.27 -0.59,0.68 -0.67,1.22 -0.02,0.1 0,0.19 0.06,0.25 0.06,0.06 0.13,0.1 0.21,0.1 0.09,0.01 0.17,-0.01 0.23,-0.06 0.08,-0.05 0.12,-0.12 0.14,-0.21 0.03,-0.35 0.16,-0.62 0.37,-0.8 0.24,-0.21 0.6,-0.32 1.07,-0.32 0.49,0 0.86,0.09 1.11,0.27 0.23,0.18 0.35,0.44 0.35,0.78 0,0.3 -0.11,0.51 -0.32,0.62 -0.22,0.12 -0.7,0.23 -1.45,0.34 -0.85,0.11 -1.43,0.34 -1.76,0.71 -0.22,0.25 -0.32,0.61 -0.32,1.07 0,0.51 0.16,0.91 0.47,1.19 0.32,0.29 0.8,0.43 1.43,0.43 0.47,0 0.88,-0.08 1.24,-0.23 0.27,-0.12 0.51,-0.28 0.72,-0.48 0,0.22 0.06,0.37 0.19,0.45 0.15,0.1 0.42,0.15 0.83,0.15 0.2,0 0.3,-0.1 0.3,-0.3 -0.01,-0.19 -0.1,-0.29 -0.3,-0.29 -0.12,0 -0.22,-0.04 -0.29,-0.11 -0.06,-0.06 -0.1,-0.15 -0.1,-0.27l0 -3.33c0,-0.55 -0.21,-0.96 -0.61,-1.23 -0.36,-0.23 -0.85,-0.35 -1.48,-0.35zm0.94 -1.77l0 0 -1.1 0 -0.76 1.39 0.62 0 1.24 -1.39z"/>
    <path class="fil1" d="M80.84 23.8l0 0.56c-0.22,-0.32 -0.47,-0.56 -0.77,-0.73 -0.3,-0.16 -0.65,-0.23 -1.05,-0.23 -0.8,0 -1.43,0.3 -1.88,0.91 -0.4,0.55 -0.6,1.21 -0.6,2 0,0.81 0.2,1.48 0.6,2.01 0.45,0.6 1.08,0.89 1.88,0.89 0.43,0 0.81,-0.1 1.16,-0.28 0.29,-0.17 0.52,-0.38 0.66,-0.62l0 0.62c0,0.33 -0.15,0.61 -0.44,0.83 -0.32,0.25 -0.78,0.38 -1.38,0.38 -0.48,0 -0.86,-0.07 -1.14,-0.22 -0.27,-0.14 -0.46,-0.33 -0.59,-0.59 -0.05,-0.08 -0.12,-0.13 -0.2,-0.15 -0.08,-0.02 -0.16,-0.01 -0.23,0.04 -0.08,0.04 -0.14,0.1 -0.16,0.18 -0.03,0.08 -0.02,0.17 0.03,0.26 0.19,0.35 0.48,0.62 0.87,0.79 0.38,0.18 0.85,0.26 1.41,0.26 0.8,0 1.43,-0.19 1.88,-0.57 0.41,-0.33 0.61,-0.74 0.61,-1.23l0 -5.12c0,-0.1 -0.04,-0.18 -0.11,-0.23 -0.06,-0.05 -0.14,-0.07 -0.23,-0.07 -0.09,0 -0.17,0.02 -0.23,0.07 -0.06,0.06 -0.09,0.13 -0.09,0.23zm-1.83 0.18l0 0c0.59,0 1.05,0.25 1.39,0.74 0.29,0.43 0.44,0.96 0.44,1.59 0,0.66 -0.15,1.2 -0.44,1.62 -0.33,0.47 -0.79,0.7 -1.39,0.7 -0.6,0 -1.06,-0.23 -1.38,-0.7 -0.29,-0.42 -0.43,-0.96 -0.43,-1.62 0,-0.62 0.14,-1.15 0.43,-1.59 0.34,-0.49 0.8,-0.74 1.38,-0.74z"/>
    <path class="fil1" d="M87.11 27.62c-0.17,0.36 -0.36,0.64 -0.58,0.82 -0.28,0.25 -0.63,0.37 -1.05,0.37 -0.53,0 -0.96,-0.24 -1.27,-0.73 -0.27,-0.41 -0.42,-0.91 -0.45,-1.5l4.13 0 0 -0.17c0,-0.82 -0.2,-1.52 -0.61,-2.08 -0.45,-0.62 -1.05,-0.93 -1.8,-0.93 -0.75,0 -1.34,0.31 -1.79,0.93 -0.4,0.57 -0.6,1.26 -0.6,2.08 0,0.81 0.2,1.5 0.6,2.06 0.44,0.62 1.04,0.93 1.79,0.93 0.53,0 0.99,-0.14 1.39,-0.41 0.38,-0.26 0.68,-0.64 0.88,-1.13 0.04,-0.1 0.04,-0.2 0,-0.29 -0.04,-0.08 -0.09,-0.13 -0.18,-0.16 -0.09,-0.04 -0.18,-0.04 -0.26,-0.01 -0.09,0.04 -0.16,0.11 -0.2,0.22zm-3.34 -1.63l0 0c0.04,-0.51 0.19,-0.95 0.45,-1.32 0.32,-0.45 0.73,-0.68 1.25,-0.68 0.52,0 0.94,0.23 1.27,0.69 0.26,0.38 0.41,0.81 0.45,1.31l-3.43 0z"/>
    <path class="fil1" d="M89.47 23.82l0 5.23c0,0.11 0.03,0.2 0.1,0.26 0.06,0.06 0.14,0.1 0.23,0.1 0.08,-0.01 0.16,-0.04 0.22,-0.1 0.07,-0.07 0.11,-0.16 0.11,-0.27l0 -3.75c0.24,-0.45 0.53,-0.78 0.86,-1 0.31,-0.21 0.67,-0.32 1.07,-0.32 0.36,0 0.65,0.11 0.87,0.34 0.2,0.2 0.29,0.45 0.29,0.75l0 3.99c0,0.1 0.03,0.19 0.09,0.26 0.06,0.06 0.14,0.08 0.23,0.08 0.08,0 0.16,-0.03 0.22,-0.08 0.07,-0.07 0.1,-0.16 0.1,-0.26l0 -3.99c0,-0.46 -0.15,-0.84 -0.46,-1.15 -0.34,-0.34 -0.79,-0.51 -1.36,-0.51 -0.44,0 -0.83,0.09 -1.15,0.28 -0.32,0.18 -0.58,0.44 -0.78,0.79l0 -0.65c0,-0.1 -0.04,-0.19 -0.11,-0.25 -0.06,-0.06 -0.14,-0.08 -0.22,-0.08 -0.09,0 -0.17,0.03 -0.23,0.08 -0.06,0.06 -0.1,0.15 -0.1,0.25z"/>
    <path class="fil1" d="M99.46 27.62c-0.17,0.36 -0.36,0.64 -0.58,0.82 -0.28,0.25 -0.63,0.37 -1.05,0.37 -0.53,0 -0.96,-0.24 -1.27,-0.73 -0.28,-0.41 -0.42,-0.91 -0.45,-1.5l4.13 0 0 -0.17c0,-0.82 -0.2,-1.52 -0.61,-2.08 -0.45,-0.62 -1.05,-0.93 -1.8,-0.93 -0.75,0 -1.35,0.31 -1.79,0.93 -0.4,0.57 -0.6,1.26 -0.6,2.08 0,0.81 0.2,1.5 0.6,2.06 0.44,0.62 1.04,0.93 1.79,0.93 0.53,0 0.99,-0.14 1.39,-0.41 0.39,-0.26 0.68,-0.64 0.88,-1.13 0.04,-0.1 0.04,-0.2 0,-0.29 -0.04,-0.08 -0.1,-0.13 -0.18,-0.16 -0.09,-0.04 -0.18,-0.04 -0.26,-0.01 -0.09,0.04 -0.16,0.11 -0.2,0.22zm-3.34 -1.63l0 0c0.04,-0.51 0.19,-0.95 0.45,-1.32 0.32,-0.45 0.73,-0.68 1.26,-0.68 0.52,0 0.94,0.23 1.27,0.69 0.26,0.38 0.41,0.81 0.45,1.31l-3.43 0z"/>
    <path class="fil1" d="M103.59 23.4c-0.57,0 -1.03,0.13 -1.38,0.38 -0.37,0.27 -0.56,0.63 -0.56,1.1 0,0.43 0.15,0.78 0.46,1.04 0.28,0.25 0.73,0.45 1.36,0.61 0.69,0.17 1.16,0.35 1.41,0.56 0.21,0.16 0.32,0.38 0.32,0.67 0,0.31 -0.12,0.55 -0.37,0.74 -0.26,0.2 -0.61,0.3 -1.07,0.3 -0.55,0 -0.94,-0.1 -1.18,-0.3 -0.23,-0.19 -0.34,-0.47 -0.34,-0.83 -0.01,-0.1 -0.05,-0.17 -0.12,-0.22 -0.06,-0.05 -0.14,-0.07 -0.24,-0.06 -0.09,0 -0.17,0.03 -0.23,0.08 -0.06,0.06 -0.09,0.14 -0.08,0.24 0.02,0.55 0.22,0.97 0.59,1.26 0.37,0.29 0.9,0.43 1.6,0.43 0.69,0 1.22,-0.16 1.6,-0.48 0.34,-0.29 0.51,-0.67 0.51,-1.14 0,-0.47 -0.14,-0.84 -0.43,-1.11 -0.3,-0.29 -0.82,-0.52 -1.56,-0.69 -0.61,-0.16 -1.02,-0.32 -1.24,-0.49 -0.21,-0.17 -0.32,-0.39 -0.32,-0.68 0,-0.25 0.12,-0.45 0.36,-0.61 0.24,-0.15 0.54,-0.22 0.9,-0.22 0.47,0 0.82,0.09 1.06,0.26 0.23,0.16 0.35,0.4 0.38,0.7 0.01,0.1 0.05,0.18 0.12,0.23 0.07,0.05 0.15,0.07 0.24,0.06 0.1,-0.01 0.18,-0.05 0.24,-0.11 0.07,-0.07 0.1,-0.16 0.09,-0.25 -0.03,-0.43 -0.21,-0.77 -0.52,-1.03 -0.36,-0.3 -0.9,-0.45 -1.61,-0.45z"/>
    <path class="fil2" d="M44.14 34.52c0.58,0 1.03,0.19 1.36,0.57 0.29,0.34 0.44,0.76 0.44,1.27l0 11.81c0,0.2 -0.06,0.36 -0.17,0.47 -0.12,0.11 -0.26,0.17 -0.42,0.17 -0.15,0 -0.29,-0.06 -0.4,-0.17 -0.13,-0.11 -0.19,-0.27 -0.19,-0.47l0 -6 -4.9 0c-0.61,0 -1.11,0.15 -1.53,0.44 -0.45,0.3 -0.68,0.72 -0.68,1.25 0,0.95 -0.04,1.8 -0.11,2.54 -0.1,0.85 -0.25,1.52 -0.44,2.03 -0.06,0.17 -0.18,0.28 -0.34,0.34 -0.15,0.05 -0.3,0.05 -0.46,0 -0.16,-0.07 -0.28,-0.17 -0.36,-0.3 -0.07,-0.16 -0.07,-0.35 0,-0.55 0.16,-0.46 0.29,-1.01 0.38,-1.67 0.09,-0.72 0.13,-1.58 0.13,-2.56 0,-0.62 0.2,-1.12 0.59,-1.5 0.33,-0.33 0.71,-0.51 1.14,-0.55 -0.68,-0.24 -1.23,-0.65 -1.63,-1.23 -0.4,-0.6 -0.6,-1.28 -0.6,-2.05 0,-1.03 0.33,-1.91 0.98,-2.64 0.73,-0.8 1.71,-1.19 2.94,-1.19l4.28 0zm-4.15 6.6l0 0 4.76 0 0 -4.68c0,-0.24 -0.06,-0.44 -0.19,-0.59 -0.15,-0.18 -0.37,-0.27 -0.64,-0.27l-3.93 0c-0.88,0 -1.59,0.29 -2.13,0.87 -0.48,0.53 -0.72,1.17 -0.72,1.9 0,0.72 0.24,1.35 0.72,1.88 0.54,0.59 1.25,0.89 2.13,0.89z"/>
    <path class="fil2" d="M57.89 34.68l-6.92 0c-0.58,0 -1.04,0.19 -1.36,0.57 -0.29,0.34 -0.44,0.76 -0.44,1.27l0 10.3c0,0.49 0.15,0.91 0.44,1.25 0.33,0.38 0.78,0.57 1.37,0.57l7.17 0c0.19,0 0.34,-0.06 0.45,-0.17 0.1,-0.1 0.15,-0.22 0.15,-0.36 0,-0.15 -0.05,-0.28 -0.15,-0.38 -0.11,-0.1 -0.27,-0.15 -0.45,-0.15l-6.95 0c-0.28,0 -0.49,-0.09 -0.64,-0.27 -0.13,-0.15 -0.19,-0.34 -0.19,-0.57l0 -4.78 6.87 0c0.19,0 0.34,-0.06 0.45,-0.17 0.1,-0.1 0.15,-0.22 0.15,-0.36 0,-0.15 -0.05,-0.28 -0.15,-0.38 -0.11,-0.1 -0.27,-0.15 -0.45,-0.15l-6.87 0 0 -4.29c0,-0.24 0.06,-0.44 0.19,-0.59 0.15,-0.18 0.37,-0.26 0.64,-0.26l6.7 0c0.17,0 0.32,-0.06 0.43,-0.17 0.1,-0.1 0.15,-0.22 0.15,-0.36 0,-0.15 -0.05,-0.28 -0.15,-0.38 -0.11,-0.1 -0.26,-0.15 -0.43,-0.15z"/>
    <path class="fil2" d="M63.08 43.03l2.64 -7.21 0.05 0 2.62 7.21 -5.31 0zm1.58 -7.77l0 0 -4.69 12.86c-0.09,0.2 -0.09,0.38 -0.02,0.53 0.07,0.15 0.19,0.25 0.34,0.31 0.15,0.05 0.3,0.04 0.44,-0.04 0.16,-0.09 0.28,-0.23 0.36,-0.42l1.61 -4.42 6.09 0 1.59 4.42c0.08,0.19 0.19,0.33 0.34,0.42 0.15,0.06 0.3,0.07 0.45,0.02 0.15,-0.05 0.26,-0.15 0.32,-0.29 0.08,-0.16 0.08,-0.34 0.02,-0.53l-4.7 -12.86c-0.1,-0.29 -0.25,-0.52 -0.46,-0.67 -0.19,-0.14 -0.39,-0.21 -0.6,-0.21 -0.24,0 -0.46,0.07 -0.65,0.21 -0.2,0.15 -0.35,0.38 -0.45,0.67z"/>
    <path class="fil2" d="M81.92 34.68l-9.05 0c-0.3,0 -0.46,0.18 -0.46,0.54 0,0.36 0.15,0.53 0.46,0.53l4.02 0 0 12.64c0,0.18 0.06,0.32 0.17,0.44 0.11,0.1 0.25,0.15 0.42,0.15 0.15,0 0.29,-0.05 0.4,-0.15 0.13,-0.11 0.19,-0.26 0.19,-0.44l0 -12.64 3.85 0c0.19,0 0.34,-0.06 0.46,-0.17 0.11,-0.1 0.17,-0.22 0.17,-0.36 0,-0.15 -0.06,-0.28 -0.17,-0.38 -0.11,-0.1 -0.27,-0.15 -0.46,-0.15z"/>
    <path class="fil2" d="M85.36 35l0 13.37c0,0.19 0.06,0.34 0.17,0.46 0.12,0.1 0.26,0.15 0.42,0.15 0.15,0 0.29,-0.05 0.4,-0.15 0.13,-0.11 0.19,-0.27 0.19,-0.46l0 -13.37c0,-0.2 -0.06,-0.36 -0.19,-0.47 -0.11,-0.1 -0.25,-0.15 -0.4,-0.15 -0.16,0 -0.3,0.05 -0.42,0.15 -0.11,0.11 -0.17,0.27 -0.17,0.47z"/>
    <path class="fil2" d="M93.47 48.1c0.16,0.58 0.47,0.87 0.91,0.87 0.43,0 0.74,-0.29 0.93,-0.87l4.44 -12.88c0.07,-0.2 0.06,-0.38 -0.02,-0.53 -0.07,-0.14 -0.19,-0.23 -0.34,-0.28 -0.16,-0.05 -0.32,-0.05 -0.45,0.02 -0.17,0.09 -0.27,0.23 -0.32,0.44l-4.19 12.33 -0.08 0 -4.19 -12.33c-0.08,-0.2 -0.19,-0.35 -0.34,-0.44 -0.15,-0.08 -0.3,-0.09 -0.45,-0.04 -0.15,0.05 -0.27,0.15 -0.34,0.28 -0.08,0.16 -0.08,0.35 0,0.55l4.46 12.88z"/>
    <path class="fil2" d="M116.16 34.21c-1.48,0 -2.65,0.3 -3.49,0.91 -0.84,0.62 -1.25,1.48 -1.25,2.58 0,1.14 0.41,2.02 1.23,2.66 0.7,0.52 1.82,0.96 3.37,1.33 1.62,0.37 2.7,0.82 3.24,1.34 0.46,0.44 0.68,1.13 0.68,2.06 0,0.86 -0.43,1.53 -1.3,2.03 -0.72,0.42 -1.53,0.63 -2.44,0.63 -1.21,0 -2.12,-0.24 -2.74,-0.72 -0.69,-0.52 -1.08,-1.35 -1.17,-2.48 -0.03,-0.22 -0.1,-0.38 -0.23,-0.5 -0.11,-0.1 -0.26,-0.14 -0.42,-0.13 -0.15,0.01 -0.28,0.07 -0.38,0.17 -0.13,0.13 -0.18,0.29 -0.15,0.49 0.13,1.47 0.64,2.55 1.55,3.25 0.83,0.66 2.03,0.99 3.58,0.99 1.37,0 2.52,-0.34 3.43,-1.01 0.99,-0.71 1.48,-1.66 1.48,-2.85 0,-1.21 -0.36,-2.15 -1.08,-2.81 -0.74,-0.69 -2.02,-1.21 -3.83,-1.58 -1.38,-0.28 -2.33,-0.64 -2.86,-1.1 -0.51,-0.43 -0.76,-1.03 -0.76,-1.82 0,-0.78 0.32,-1.38 0.97,-1.8 0.61,-0.39 1.44,-0.59 2.5,-0.59 0.99,0 1.75,0.2 2.29,0.61 0.54,0.42 0.89,1.07 1.04,1.97 0.03,0.2 0.11,0.35 0.25,0.45 0.14,0.1 0.29,0.14 0.46,0.13 0.18,-0.02 0.31,-0.11 0.4,-0.25 0.11,-0.15 0.15,-0.35 0.11,-0.59 -0.15,-0.93 -0.52,-1.69 -1.1,-2.26 -0.78,-0.76 -1.91,-1.14 -3.38,-1.14z"/>
    <path class="fil2" d="M108.23 40.64c-0.85,-1.42 -1.56,-3 -2.18,-4.5 -0.17,-0.41 -0.29,-0.73 -0.45,-1.14 -0.14,-0.35 -0.21,-0.82 -0.53,-1.14l-0 7.08c0.61,0.17 0.58,0.13 1.03,0.59 0.28,0.28 0.41,0.75 0.41,1.05 0,1.14 -1.5,2.48 -2.93,1.06 -0.53,-0.53 -0.54,-1.57 -0.01,-2.11 0.47,-0.47 0.42,-0.41 1.01,-0.59l-0.06 -7.04c-0.2,0.21 -0.51,1.21 -0.69,1.65 -0.83,2.08 -1.79,4.42 -3.12,6.2 -0.15,0.21 -0.3,0.35 -0.41,0.55 -0.13,0.23 -0.03,0.34 0.02,0.59 0.36,1.63 0.87,3.51 1.18,5.05 0.21,1.09 0.29,0.99 1.08,0.99l1.12 -0 0 -3.7 2.25 0 0 3.7 1.13 -0c0.4,-0 0.83,0.12 0.99,-0.4 0.11,-0.37 0.17,-0.76 0.26,-1.14l1.03 -4.51c0.21,-0.79 -0.19,-0.66 -1.14,-2.23z"/>
    <path class="fil2" d="M49.78 68.06c-0.93,1.72 0.97,3.35 2.46,2.58 0.68,-0.35 7.04,-7.77 8.08,-8.95 0.8,-0.91 3.56,-3.8 3.98,-4.63 0.81,-1.55 -1.03,-3.21 -2.46,-2.54 -0.72,0.34 -7.03,7.72 -8.08,8.92 -0.86,0.98 -3.5,3.74 -3.98,4.62z"/>
    <path class="fil2" d="M57.65 70.51c-0.55,1 -0.16,2.57 1.29,2.79 1.34,0.21 1.95,-0.83 2.99,-2.01 1.07,-1.22 5.3,-5.69 5.83,-6.71 0.46,-0.88 0.16,-2.38 -1.26,-2.69 -1.31,-0.29 -1.93,0.71 -3.01,1.94 -1.14,1.29 -5.23,5.59 -5.83,6.69z"/>
    <path class="fil1" d="M28.25 26.11c-0.63,1.17 -14.04,13.32 -15.8,14.55 0.13,-6.22 4.38,-12.89 9.11,-15.66 1.8,-1.05 4.12,0.22 6.69,1.11z"/>
    <path class="fil1" d="M44.35 30.46l-20.28 -6.57c5.25,-3.78 16.46,-2.18 18.94,0.62 0.74,0.84 1.31,4.52 1.34,5.95z"/>
    <path class="fil1" d="M16.83 38.23l4.53 20.86c-5.88,-3.29 -9.77,-12.33 -9.05,-16.46 0.2,-1.17 3.48,-4.04 4.52,-4.4z"/>
    <path class="fil1" d="M44.37 62.05c-1.46,-0.63 -1.21,-1.42 -6.25,-2.8 -0.78,-0.21 -1.57,-0.39 -2.39,-0.53l-14.47 -4.73c0.02,1.42 0.65,5.18 1.38,5.98 1.72,1.92 7.84,3.32 13.2,2.64 0.51,0.1 1.04,0.22 1.55,0.36 6.13,1.61 6.12,4.98 8.3,3.31 0.65,-0.5 9.96,-11.24 11.38,-12.85 0.14,-0.16 0.28,-0.32 0.43,-0.48l-5.03 0c-2.55,2.94 -7.2,8.37 -8.09,9.1z"/>
   </g>
  </g>
 </g>
</svg>
